<svg width="20" height="20" viewBox="0 0 20 20" fill="none" xmlns="http://www.w3.org/2000/svg">
<g clip-path="url(#clip0)">
<path d="M15.8008 6.26953C15.8008 9.49478 13.1862 12.1094 9.96094 12.1094C6.73569 12.1094 4.12109 9.49478 4.12109 6.26953C4.12109 3.04428 6.73569 0.429688 9.96094 0.429688C13.1862 0.429688 15.8008 3.04428 15.8008 6.26953Z" fill="#4DBCE8"/>
<path d="M19.9609 13.8056C19.9609 17.0308 17.3463 19.6454 14.1211 19.6454C10.8958 19.6454 8.28125 17.0308 8.28125 13.8056C8.28125 10.5803 10.8958 7.96573 14.1211 7.96573C17.3463 7.96573 19.9609 10.5803 19.9609 13.8056Z" fill="#FFC845"/>
<path d="M8.58386 11.9457C9.02545 12.0523 9.48657 12.1094 9.96097 12.1094C12.5359 12.1094 14.7215 10.4428 15.4982 8.12946C15.0566 8.02264 14.5955 7.96573 14.1211 7.96573C11.5462 7.96573 9.36053 9.63229 8.58386 11.9457Z" fill="#49BD90"/>
<path d="M11.6406 13.8056C11.6406 17.0308 9.02603 19.6454 5.80078 19.6454C2.57553 19.6454 -0.0390625 17.0308 -0.0390625 13.8056C-0.0390625 10.5803 2.57553 7.96573 5.80078 7.96573C9.02603 7.96573 11.6406 10.5803 11.6406 13.8056Z" fill="#FF5CAA"/>
<path d="M4.42371 8.12946C5.20038 10.4428 7.38604 12.1094 9.96096 12.1094C10.4354 12.1094 10.8965 12.0523 11.3381 11.9457C10.5614 9.63229 8.37573 7.96573 5.80081 7.96573C5.32641 7.96573 4.86529 8.02264 4.42371 8.12946Z" fill="#AF7BC6"/>
<path d="M8.28125 13.8055C8.28125 15.4023 8.92242 16.8492 9.96094 17.9034C10.9995 16.8492 11.6406 15.4023 11.6406 13.8055C11.6406 12.2087 10.9995 10.7618 9.96094 9.70761C8.92242 10.7618 8.28125 12.2087 8.28125 13.8055Z" fill="#EF6122"/>
<path d="M11.3381 11.9461C10.8965 12.0526 10.4352 12.1093 9.96096 12.1093C9.48672 12.1093 9.02545 12.0526 8.58386 11.9461C8.86951 11.0954 9.34543 10.3326 9.96096 9.70761C10.5765 10.3326 11.0524 11.0954 11.3381 11.9461Z" fill="white"/>
</g>
<defs>
<clipPath id="clip0">
<rect width="20" height="20" fill="white"/>
</clipPath>
</defs>
</svg>
