<svg width="20" height="20" viewBox="0 0 20 20" fill="none" xmlns="http://www.w3.org/2000/svg">
<g clip-path="url(#clip0)">
<path d="M9.55369 13.9649L12.6557 10.0699L19.2377 1.80464C19.3708 1.63786 19.3955 1.40242 19.3282 1.15401C19.2612 0.905897 19.1008 0.644055 18.8634 0.424481C18.3884 -0.0145159 17.77 -0.131093 17.4585 0.159893L9.73481 7.36969L6.09497 10.7674L9.55369 13.9649Z" fill="#FFD061"/>
<path d="M19.2247 0.893078C18.835 0.686626 18.4269 0.675182 18.1922 0.893993L7.07047 11.669L6.09497 10.7674L9.73496 7.36984L17.4587 0.160044C17.7701 -0.130942 18.3884 -0.0142121 18.8631 0.424479C19.0183 0.56776 19.1407 0.729503 19.2247 0.893078Z" fill="#EF8930"/>
<path d="M12.6558 10.0697L9.55369 13.9649L7.07047 11.6689L6.09497 10.7672L9.73496 7.36969L10.6423 8.20847L12.6558 10.0697Z" fill="#E6E6E6"/>
<path d="M6.09499 10.7671C3.85758 10.006 1.48255 12.2217 1.58905 14.9344C1.69556 17.647 1.54053 19.0518 0.664062 20C0.664062 20 10.5974 19.5331 9.55386 13.9647" fill="#72BBFF"/>
<path d="M7.52687 12.0912L6.09483 10.7674C3.85774 10.0063 1.48224 12.2219 1.58921 14.9341C1.69571 17.647 1.54038 19.052 0.664062 20C3.79578 17.6638 2.51832 13.36 7.52687 12.0912Z" fill="#0081FF"/>
<path d="M10.6422 8.20847L7.07047 11.6689L6.09497 10.7672L9.73496 7.36969L10.6422 8.20847Z" fill="#CCCCCC"/>
</g>
<defs>
<clipPath id="clip0">
<rect width="20" height="20" fill="white"/>
</clipPath>
</defs>
</svg>
