<svg width="20" height="20" viewBox="0 0 20 20" fill="none" xmlns="http://www.w3.org/2000/svg">
<g clip-path="url(#clip0)">
<path d="M12.5986 14.1183L5.57944 7.09918C5.24327 6.76305 5.24315 6.2175 5.57944 5.88121L10.4812 0.979441C11.3848 0.0758846 12.8548 0.0759237 13.7583 0.979441L18.7183 5.93941C19.6218 6.84293 19.6218 8.31305 18.7183 9.21649L13.8166 14.1183C13.4805 14.4544 12.9348 14.4546 12.5986 14.1183Z" fill="#9DCFFF"/>
<path d="M18.7183 5.9395L13.7583 0.979533C12.8549 0.0760152 11.3848 0.0759761 10.4812 0.979533L10.0001 1.46063V11.5198L12.5986 14.1183C12.9346 14.4544 13.4803 14.4546 13.8166 14.1183L18.7183 9.21654C19.6218 8.3131 19.6218 6.84302 18.7183 5.9395Z" fill="#51B3DA"/>
<path d="M14.5537 17.9757H9.95936L13.7523 14.1832L5.51521 5.94614L0.677814 10.783C-0.225938 11.6867 -0.225938 13.1566 0.677814 14.0603L5.63751 19.02C6.08329 19.4658 6.66665 19.691 7.25232 19.697C7.26029 19.6972 7.2681 19.6982 7.27619 19.6982H14.5537C15.0294 19.6982 15.415 19.3126 15.415 18.8369C15.415 18.3612 15.0293 17.9757 14.5537 17.9757Z" fill="#FF7876"/>
<path d="M14.5537 17.9756H10V19.6981H14.5537C15.0293 19.6981 15.4149 19.3125 15.4149 18.8369C15.415 18.3612 15.0294 17.9756 14.5537 17.9756Z" fill="#FF5E5B"/>
<path d="M10 10.431V17.935L13.7523 14.1832L10 10.431Z" fill="#FF5E5B"/>
<path d="M19.1388 19.6981H17.6828C17.2072 19.6981 16.8215 19.3125 16.8215 18.8369C16.8215 18.3613 17.2072 17.9756 17.6828 17.9756H19.1388C19.6144 17.9756 20 18.3613 20 18.8369C20.0001 19.3126 19.6145 19.6981 19.1388 19.6981Z" fill="#FF5E5B"/>
<path d="M16.8064 16.7779H15.3504C14.8748 16.7779 14.4891 16.3922 14.4891 15.9166C14.4891 15.441 14.8748 15.0554 15.3504 15.0554H16.8064C17.282 15.0554 17.6676 15.441 17.6676 15.9166C17.6676 16.3922 17.282 16.7779 16.8064 16.7779Z" fill="#FF5E5B"/>
</g>
<defs>
<clipPath id="clip0">
<rect width="20" height="20" fill="white"/>
</clipPath>
</defs>
</svg>
