<svg width="18" height="18" viewBox="0 0 18 18" fill="none" xmlns="http://www.w3.org/2000/svg">
<g clip-path="url(#clip0)">
<path d="M5.63062 5.77869V15.7147C5.63062 16.9748 6.65581 18 7.91595 18H13.4711C14.7312 18 15.7564 16.9748 15.7564 15.7147C15.7564 15.1615 15.7564 6.05617 15.7564 5.77869H5.63062Z" fill="#9DCFFF"/>
<path d="M10.6936 5.77869V18H13.4712C14.7313 18 15.7565 16.9748 15.7565 15.7147V5.77869H10.6936Z" fill="#72BBFF"/>
<path d="M8.3472 8.20465C8.05593 8.20465 7.81982 8.44076 7.81982 8.73203V15.0467C7.81982 15.3379 8.05593 15.574 8.3472 15.574C8.63847 15.574 8.87458 15.3379 8.87458 15.0467V8.73203C8.87458 8.44076 8.63844 8.20465 8.3472 8.20465Z" fill="#5A5A5A"/>
<path d="M10.6936 8.20465C10.4024 8.20465 10.1663 8.44076 10.1663 8.73203V15.0467C10.1663 15.3379 10.4024 15.574 10.6936 15.574C10.9849 15.574 11.221 15.3379 11.221 15.0467V8.73203C11.221 8.44076 10.9849 8.20465 10.6936 8.20465Z" fill="#5A5A5A"/>
<path d="M11.221 8.73224V15.0468C11.221 15.3379 10.9847 15.5741 10.6936 15.5741V8.20486C10.9847 8.20486 11.221 8.44076 11.221 8.73224Z" fill="#444444"/>
<path d="M13.0401 8.20465C12.7488 8.20465 12.5127 8.44076 12.5127 8.73203V15.0467C12.5127 15.3379 12.7488 15.574 13.0401 15.574C13.3313 15.574 13.5675 15.3379 13.5675 15.0467V8.73203C13.5675 8.44076 13.3313 8.20465 13.0401 8.20465Z" fill="#444444"/>
<path d="M6.75599 0.635287C6.75599 0.635287 6.75599 0.635287 6.75563 0.635287C6.21648 0.298209 5.48945 0.361314 5.01681 0.833919V0.834271L4.0472 1.80353L3.07759 2.77314C2.52915 3.32158 2.52915 4.21384 3.07759 4.76193L3.57505 5.25939L4.28907 5.18556L4.32071 4.51337L3.8236 4.01626C3.68649 3.87915 3.68649 3.65591 3.8236 3.51915L4.79321 2.54954L5.76247 1.57993H5.76282C5.89251 1.45024 6.11526 1.43523 6.25958 1.57958L6.75704 2.07704L7.40919 1.96876L7.50306 1.33138C6.98253 0.810857 6.92614 0.740123 6.75599 0.635287Z" fill="#5A5A5A"/>
<path d="M6.75616 0.635282C6.75616 0.635282 6.75616 0.635282 6.7558 0.635282C6.21802 0.299047 5.4913 0.359973 5.01697 0.834266L4.04736 1.80352L4.79338 2.54954L5.76299 1.57993C5.89258 1.45034 6.11515 1.43495 6.25975 1.57958L6.75721 2.07704L7.50323 1.33138C6.96565 0.793801 6.93503 0.748696 6.75616 0.635282Z" fill="#444444"/>
<path d="M11.1593 1.30531L10.2146 0.360596C9.73479 -0.119181 8.95411 -0.119181 8.4743 0.360596L2.60349 6.23137C2.12371 6.71115 2.12371 7.49183 2.60349 7.97164L3.5482 8.91636C3.75411 9.1223 4.08806 9.12234 4.29401 8.91636L11.1593 2.05112C11.3652 1.84517 11.3652 1.51126 11.1593 1.30531Z" fill="#3BA9FF"/>
<path d="M10.2144 0.359859L11.1591 1.30458C11.365 1.51042 11.3652 1.8443 11.1591 2.05042L7.72659 5.48297L5.53882 3.2952L8.47415 0.359859C8.95397 -0.119953 9.73461 -0.119953 10.2144 0.359859Z" fill="#0081FF"/>
</g>
<defs>
<clipPath id="clip0">
<rect width="18" height="18" fill="white"/>
</clipPath>
</defs>
</svg>
